<?xml version="1.0" standalone="no"?>
<!DOCTYPE svg PUBLIC "-//W3C//DTD SVG 20010904//EN"
 "http://www.w3.org/TR/2001/REC-SVG-20010904/DTD/svg10.dtd">
<svg version="1.0" xmlns="http://www.w3.org/2000/svg"
 width="96.000000pt" height="96.000000pt" viewBox="0 0 96.000000 96.000000"
 preserveAspectRatio="xMidYMid meet">

<g transform="translate(0.000000,96.000000) scale(0.100000,-0.100000)"
fill="#000000" stroke="none">
<path d="M385 906 c-107 -34 -186 -102 -232 -201 -25 -54 -28 -71 -28 -165 0
-92 3 -112 26 -160 29 -63 86 -122 175 -186 37 -26 67 -57 75 -75 18 -45 58
-89 79 -89 21 0 61 44 79 89 8 19 39 49 79 78 90 64 140 118 171 183 23 48 26
68 26 160 0 94 -3 111 -28 165 -30 65 -81 124 -138 160 -78 50 -199 68 -284
41z m246 -67 c97 -52 155 -141 166 -252 10 -110 -33 -203 -129 -276 -110 -85
-128 -102 -154 -151 -15 -28 -30 -50 -34 -50 -3 0 -17 19 -30 42 -32 60 -45
73 -127 134 -83 62 -125 114 -149 186 -31 94 -3 219 70 305 26 31 111 82 160
94 63 17 162 2 227 -32z"/>
<path d="M410 747 c-29 -15 -50 -51 -50 -89 0 -43 38 -77 105 -94 68 -18 95
-37 95 -69 0 -38 -30 -55 -97 -55 -53 0 -61 3 -66 21 -9 33 -32 17 -32 -22 l0
-34 92 0 c107 0 131 14 140 82 7 56 -23 89 -102 109 -68 18 -95 37 -95 69 0
33 31 55 77 55 33 0 42 -4 46 -21 9 -33 32 -17 32 22 l0 34 -60 3 c-34 1 -71
-3 -85 -11z"/>
</g>
</svg>
