<?xml version="1.0" ?><svg style="enable-background:new 0 0 48 48;" version="1.1" viewBox="0 0 48 48" xml:space="preserve" xmlns="http://www.w3.org/2000/svg" xmlns:xlink="http://www.w3.org/1999/xlink"><g id="Layer_1"/><g id="Layer_3"><g><path d="M22.643,26.8h1.008v0.712c0,0.276,0.224,0.5,0.5,0.5s0.5-0.224,0.5-0.5v-0.724c0.841-0.064,1.508-0.761,1.508-1.618    c0-0.899-0.731-1.631-1.631-1.631h-0.754c-0.348,0-0.631-0.283-0.631-0.707c0-0.348,0.283-0.631,0.631-0.631h1.385v0.292    c0,0.276,0.224,0.5,0.5,0.5s0.5-0.224,0.5-0.5V21.7c0-0.276-0.224-0.5-0.5-0.5H24.65v-0.712c0-0.276-0.224-0.5-0.5-0.5    s-0.5,0.224-0.5,0.5v0.724c-0.841,0.064-1.508,0.765-1.508,1.694c0,0.899,0.731,1.632,1.631,1.632h0.754    c0.348,0,0.631,0.283,0.631,0.631S24.875,25.8,24.527,25.8h-1.385v-0.235c0-0.276-0.224-0.5-0.5-0.5s-0.5,0.224-0.5,0.5V26.3    C22.143,26.576,22.366,26.8,22.643,26.8z"/><path d="M37.348,35.291C39.933,32.24,41.5,28.302,41.5,24c0-1.354-0.155-2.702-0.461-4.01c-0.063-0.269-0.322-0.435-0.602-0.373    c-0.269,0.063-0.436,0.332-0.373,0.602c0.251,1.071,0.373,2.174,0.407,3.281h-6.85c-0.046-2.916-0.481-5.655-1.222-8.048    c1.624-0.486,3.105-1.112,4.389-1.866c0.923,1.132,1.711,2.391,2.318,3.768c0.112,0.254,0.406,0.365,0.659,0.257    c0.253-0.112,0.368-0.407,0.257-0.659C37.225,10.603,30.936,6.5,24,6.5c-5.26,0-9.973,2.343-13.183,6.028    c-0.059,0.038-0.111,0.087-0.151,0.15c-0.005,0.008-0.005,0.018-0.01,0.027C8.069,15.756,6.5,19.696,6.5,24    c0,4.302,1.568,8.241,4.153,11.292c0.005,0.01,0.005,0.021,0.011,0.03c0.041,0.065,0.095,0.114,0.155,0.152    C14.029,39.158,18.742,41.5,24,41.5c5.278,0,10.007-2.359,13.219-6.066c0.042-0.034,0.087-0.062,0.117-0.11    C37.342,35.313,37.343,35.301,37.348,35.291z M24,31.364c-2.612,0-5.151,0.323-7.458,0.916c-0.703-2.301-1.12-4.95-1.165-7.78    h1.648C17.284,28.126,20.309,31,24,31s6.716-2.874,6.975-6.5h1.648c-0.045,2.83-0.462,5.479-1.165,7.78    C29.152,31.687,26.613,31.364,24,31.364z M31.154,33.232C29.599,37.614,26.973,40.5,24,40.5s-5.599-2.886-7.154-7.268    c2.208-0.562,4.643-0.868,7.154-0.868C26.511,32.364,28.946,32.67,31.154,33.232z M7.525,24.5h2.094c0.276,0,0.5-0.224,0.5-0.5    s-0.224-0.5-0.5-0.5H7.525c0.113-3.75,1.47-7.192,3.69-9.913c1.282,0.753,2.762,1.379,4.385,1.865    c-0.741,2.393-1.176,5.132-1.222,8.048h-1.821c-0.276,0-0.5,0.224-0.5,0.5s0.224,0.5,0.5,0.5h1.821    c0.046,2.916,0.481,5.655,1.222,8.048c-1.623,0.485-3.103,1.111-4.385,1.864C8.995,31.691,7.638,28.25,7.525,24.5z M18,24    c0-3.309,2.691-6,6-6s6,2.691,6,6s-2.691,6-6,6S18,27.309,18,24z M33.622,24.5h6.853c-0.113,3.75-1.47,7.192-3.69,9.913    c-1.282-0.753-2.763-1.379-4.385-1.865C33.141,30.155,33.576,27.416,33.622,24.5z M32.622,23.5h-1.648    C30.716,19.874,27.691,17,24,17s-6.716,2.874-6.975,6.5h-1.648c0.045-2.83,0.462-5.479,1.165-7.781    c2.306,0.593,4.845,0.916,7.457,0.916s5.151-0.323,7.457-0.917C32.16,18.02,32.578,20.669,32.622,23.5z M16.846,14.768    C18.401,10.386,21.027,7.5,24,7.5s5.599,2.886,7.153,7.267c-2.208,0.562-4.643,0.868-7.153,0.868    C21.489,15.636,19.054,15.33,16.846,14.768z M36.118,12.816c-1.187,0.678-2.546,1.246-4.035,1.69    c-1.026-2.87-2.498-5.162-4.24-6.544C31.03,8.725,33.907,10.424,36.118,12.816z M20.142,7.974    c-1.736,1.384-3.203,3.67-4.225,6.531c-1.483-0.442-2.837-1.007-4.02-1.681C14.075,10.467,16.923,8.75,20.142,7.974z     M11.896,35.175c1.184-0.674,2.537-1.239,4.021-1.681c1.023,2.861,2.489,5.148,4.225,6.531    C16.923,39.25,14.074,37.532,11.896,35.175z M27.858,40.026c1.736-1.384,3.203-3.67,4.225-6.531    c1.483,0.442,2.837,1.007,4.02,1.682C33.925,37.533,31.077,39.25,27.858,40.026z"/></g></g><g id="Layer_2"/></svg>